<svg viewBox="0 0 32 32" fill="black" xmlns="http://www.w3.org/2000/svg">
<path fill-rule="evenodd" clip-rule="evenodd" d="M24.6956 18.4222L28.1103 23.4383C28.4699 23.9667 28.508 24.6506 28.2091 25.2156C27.9102 25.7805 27.3235 26.134 26.6843 26.134H5.30896C4.66977 26.134 4.08305 25.7806 3.78418 25.2156C3.48531 24.6506 3.52335 23.9667 3.88304 23.4384L7.29772 18.4223V12.1642C7.29772 7.94381 10.3034 4.42581 14.2909 3.63294V1.70577C14.2909 0.763749 15.0545 0 15.9966 0C16.9387 0 17.7024 0.763749 17.7025 1.70577V3.63288C21.6899 4.42567 24.6956 7.94367 24.6956 12.1641V18.4222ZM12.2028 28.1952C12.2029 28.1904 12.2031 28.1857 12.2032 28.1809H19.7901C19.7901 28.1848 19.7902 28.1887 19.7904 28.1926C19.7905 28.197 19.7907 28.2015 19.7907 28.2059C19.7907 30.3013 18.092 32 15.9966 32C13.9012 32 12.2025 30.3013 12.2025 28.2059C12.2025 28.2023 12.2026 28.1987 12.2028 28.1952Z" />
</svg>
