<svg viewBox="0 0 32 32" fill="black" xmlns="http://www.w3.org/2000/svg">
<path fill-rule="evenodd" clip-rule="evenodd" d="M16 32C24.8365 32 32 24.8366 32 16C32 7.16344 24.8365 0 16 0C7.16345 0 0 7.16344 0 16C0 24.8366 7.16345 32 16 32ZM7.91422 17.1142C7.13318 16.3332 7.13315 15.0668 7.91422 14.2858C8.69528 13.5047 9.96158 13.5047 10.7426 14.2858L14.2782 17.8213L22.0563 10.0431C22.8374 9.26208 24.1037 9.26209 24.8848 10.0431C25.6658 10.8242 25.6658 12.0905 24.8848 12.8716L15.6924 22.064C14.9113 22.845 13.645 22.845 12.864 22.064L7.91422 17.1142Z"/>
</svg>
