<svg viewBox="0 0 32 32" fill="black" xmlns="http://www.w3.org/2000/svg">
<path fill-rule="evenodd" clip-rule="evenodd" d="M16 32C24.8366 32 32 24.8366 32 16C32 7.16344 24.8366 0 16 0C7.16344 0 0 7.16344 0 16C0 24.8366 7.16344 32 16 32ZM18 8C18 8.05942 17.9974 8.11823 17.9923 8.17634L17.5 19.5C17.5 20.3284 16.8284 21 16 21C15.1716 21 14.5 20.3284 14.5 19.5L14.0077 8.17634C14.0026 8.11823 14 8.05942 14 8C14 6.89543 14.8954 6 16 6C17.1046 6 18 6.89543 18 8ZM18 24C18 25.1046 17.1046 26 16 26C14.8954 26 14 25.1046 14 24C14 22.8954 14.8954 22 16 22C17.1046 22 18 22.8954 18 24Z" />
</svg>
