<svg viewBox="0 0 32 32" fill="black" xmlns="http://www.w3.org/2000/svg">
<path fill-rule="evenodd" clip-rule="evenodd" d="M3.79687 3.79699C-1.26558 8.85965 -1.26568 17.0972 3.79687 22.1599C8.09185 26.4549 14.4796 27.1052 19.4676 24.1131C19.4676 24.1131 19.8281 23.8981 20.1323 24.2023L26.743 30.813C28.0615 32.1316 29.9053 32.4454 31.0746 31.2759L31.2759 31.0748C32.4452 29.9053 32.1313 28.0616 30.8127 26.7431L24.1881 20.1185C23.8978 19.8284 24.1127 19.4678 24.1127 19.4678C27.105 14.4797 26.4546 8.09196 22.1596 3.79699C17.097 -1.26566 8.85953 -1.26566 3.79687 3.79699ZM19.7623 6.19446C23.5031 9.93524 23.5032 16.0219 19.7624 19.7626C16.0215 23.5032 9.93503 23.5032 6.19424 19.7626C2.45346 16.0219 2.45346 9.93514 6.19424 6.19446C9.93492 2.45368 16.0215 2.45378 19.7623 6.19446ZM19.4565 12.1019C19.2859 12.174 19.1089 12.2082 18.9347 12.2082C18.4126 12.2082 17.9164 11.9011 17.7 11.3899C16.4633 8.46699 13.0787 7.09522 10.1558 8.33205C9.47403 8.62038 8.68789 8.30174 8.39936 7.62013C8.11092 6.93853 8.42977 6.15219 9.11127 5.86376C13.3953 4.05089 18.3555 6.06137 20.1684 10.3455C20.4568 11.0271 20.138 11.8135 19.4565 12.1019Z" />
</svg>
