<svg viewBox="0 0 32 32" fill="black" xmlns="http://www.w3.org/2000/svg">
<path fill-rule="evenodd" clip-rule="evenodd" d="M13.8221 0.936768C15.0054 -0.312256 16.9946 -0.312256 18.1779 0.936768L30.8022 14.6192C32.0098 15.8939 31.1061 17.9947 29.3503 17.9947H26.8673C26.3696 17.9947 25.9477 18.3606 25.8773 18.8533L24.2453 30.2775C24.1046 31.2628 23.2607 31.9947 22.2654 31.9947H9.73459C8.73929 31.9947 7.89545 31.2628 7.75469 30.2775L6.12265 18.8533C6.05228 18.3606 5.63036 17.9947 5.1327 17.9947H2.64972C0.89386 17.9947 -0.00976533 15.8939 1.19782 14.6192L13.8221 0.936768ZM16 25.9947C18.2091 25.9947 20 24.2038 20 21.9947C20 19.7855 18.2091 17.9947 16 17.9947C13.7909 17.9947 12 19.7855 12 21.9947C12 24.2038 13.7909 25.9947 16 25.9947Z" />
</svg>
