<svg xmlns="http://www.w3.org/2000/svg" viewBox="0 0 214.47 101.62"><g id="レイヤー_2" data-name="レイヤー 2"><g id="レイヤー_1-2" data-name="レイヤー 1"><path class="cls-1" d="M104.33,50.43A25.45,25.45,0,0,0,130,25.22,24.67,24.67,0,0,0,128.18,16L137,7.72a1.68,1.68,0,0,0-2.26-2.49l-8.28,7.23A25.72,25.72,0,0,0,104.33,0,25.46,25.46,0,0,0,78.7,25.22a24.81,24.81,0,0,0,3.07,12l-5.29,5a1.76,1.76,0,0,0-.1,2.45h0a1.74,1.74,0,0,0,2.47.16l5-4.38A25.73,25.73,0,0,0,104.33,50.43Zm21.46-25.2a21.27,21.27,0,0,1-21.47,21A21.56,21.56,0,0,1,87,37.67L99.31,27a1.16,1.16,0,0,1,1.93.74l1,9.5a1.44,1.44,0,0,0,2.4.91l20.2-19A20.54,20.54,0,0,1,125.79,25.23Zm-42.94,0a21.27,21.27,0,0,1,21.47-21,21.56,21.56,0,0,1,18.9,11.06l-15.3,13.35a1.08,1.08,0,0,1-1.79-.68l-1.07-10a1.25,1.25,0,0,0-2.08-.79L84.91,34.2A20.51,20.51,0,0,1,82.85,25.23Z"/><path class="cls-1" d="M199.69,71.88a14.78,14.78,0,1,0,14.78,14.77A14.79,14.79,0,0,0,199.69,71.88Zm0,24.51a9.74,9.74,0,1,1,9.74-9.74A9.75,9.75,0,0,1,199.69,96.39Z"/><path class="cls-1" d="M155.52,76a14,14,0,0,0-3.09,4.3,14.79,14.79,0,0,0,2.3,16.13,14.36,14.36,0,0,0,5.84,4,15.1,15.1,0,0,0,5.25,1,14.61,14.61,0,0,0,7.7-2.19l-2.24-3.65a.76.76,0,0,0-1-.29,9.75,9.75,0,0,1-13.19-13A9,9,0,0,1,158.7,80a9.75,9.75,0,0,1,14.92.91.93.93,0,0,0,1.23.22l3.53-2.17A14.8,14.8,0,0,0,155.52,76Z"/><path class="cls-1" d="M69.57,90.89c.13-.45.23-.91.32-1.38a2.29,2.29,0,0,1,.07-.28l0,0c0-.17.07-.33.09-.51h0A14.77,14.77,0,1,0,53.48,101.5a15.27,15.27,0,0,0,1.9.12A14.78,14.78,0,0,0,64,98.82c1.67,1.19,6.14,3.47,8.62-.81C69.79,96.94,68.7,95.22,69.57,90.89ZM54.12,96.51a9.74,9.74,0,0,1-4.69-17.37,9.62,9.62,0,0,1,5.92-2,10.83,10.83,0,0,1,1.27.08A9.76,9.76,0,0,1,65,88.1h0A9.75,9.75,0,0,1,54.12,96.51Z"/><path class="cls-1" d="M141,90.89c.13-.45.23-.91.32-1.38a2.29,2.29,0,0,1,.07-.28l0,0c0-.17.06-.33.08-.51h0a14.77,14.77,0,1,0-16.54,12.76,15.27,15.27,0,0,0,1.9.12,14.78,14.78,0,0,0,8.64-2.8c1.67,1.19,6.14,3.47,8.62-.81C141.18,96.94,140.09,95.22,141,90.89Zm-15.44,5.62a9.74,9.74,0,0,1-4.7-17.37,9.62,9.62,0,0,1,5.92-2,10.83,10.83,0,0,1,1.27.08,9.76,9.76,0,0,1,8.41,10.91h0A9.75,9.75,0,0,1,125.52,96.51Z"/><path class="cls-1" d="M20.1,72c-8.87-.58-14.16,4.52-15.44,9.77S0,100.89,0,100.89l4.32,0a1.36,1.36,0,0,0,1.32-1C6.36,96.68,8.52,87.18,9.55,83c.79-3.22,4.28-6.3,10.24-5.94a6.9,6.9,0,0,1,5.34,2.47,5.91,5.91,0,0,1,.64,4.38c-1.65,7-4,17-4.06,17.06H26a1.41,1.41,0,0,0,1.38-1.1C28,97.13,29.53,90,30.85,84.32c.67-2.86.48-5.4-1.17-7.61C27.72,74.07,25.05,72.32,20.1,72Z"/><path class="cls-1" d="M92.85,73.57c-2.29,1.09-5.29,3.48-6.59,8.67-1.62,6.47-4.7,18.54-4.73,18.66h5.74c0-.12,2.39-10.64,4.18-17.45.7-2.67,1.86-4.24,3.8-5.16,2.54-1.21,5.91-.76,8.33.19a.76.76,0,0,0,1-.42L106.28,74C103,72.43,97.43,71.38,92.85,73.57Z"/></g></g></svg>