<svg xmlns="http://www.w3.org/2000/svg" viewBox="0 0 295.32 50.43"><g id="レイヤー_2" data-name="レイヤー 2"><g id="レイヤー_1-2" data-name="レイヤー 1"><path class="cls-1" d="M58.78,5.23l-8.29,7.23A25.71,25.71,0,0,0,28.4,0,25.46,25.46,0,0,0,2.77,25.22a24.69,24.69,0,0,0,3.07,12l-5.29,5a1.76,1.76,0,0,0,2.37,2.61L8,40.4a25.73,25.73,0,0,0,20.44,10A25.45,25.45,0,0,0,54,25.22,24.86,24.86,0,0,0,52.25,16L61,7.72a1.68,1.68,0,0,0-2.26-2.49Zm-51.86,20a21.27,21.27,0,0,1,21.47-21A21.55,21.55,0,0,1,47.28,15.26L32,28.61a1.07,1.07,0,0,1-1.79-.68l-1.07-10a1.25,1.25,0,0,0-2.08-.79L9,34.2A20.51,20.51,0,0,1,6.92,25.23Zm42.94,0a21.27,21.27,0,0,1-21.47,21A21.56,21.56,0,0,1,11.1,37.67L23.38,27a1.16,1.16,0,0,1,1.93.74l1,9.5a1.43,1.43,0,0,0,2.39.91l20.21-19A20.54,20.54,0,0,1,49.86,25.23Z"/><path class="cls-1" d="M280.55,11.52A14.78,14.78,0,1,0,295.32,26.3,14.8,14.8,0,0,0,280.55,11.52Zm0,24.51a9.74,9.74,0,1,1,9.73-9.73A9.74,9.74,0,0,1,280.55,36Z"/><path class="cls-1" d="M236.37,15.67a14,14,0,0,0-3.09,4.3,14.79,14.79,0,0,0,2.3,16.13,14.3,14.3,0,0,0,5.85,4,15,15,0,0,0,5.24,1,14.7,14.7,0,0,0,7.7-2.19l-2.24-3.66a.77.77,0,0,0-1-.29,9.75,9.75,0,0,1-13.19-13,9.19,9.19,0,0,1,1.61-2.29,9.77,9.77,0,0,1,14.93.9.92.92,0,0,0,1.22.23l3.54-2.17A14.81,14.81,0,0,0,236.37,15.67Z"/><path class="cls-1" d="M150.42,30.54a12.75,12.75,0,0,0,.32-1.39,2.29,2.29,0,0,0,.07-.28l0,0c0-.17.06-.33.09-.5h0a14.78,14.78,0,1,0-16.55,12.76,15.39,15.39,0,0,0,1.9.12,14.72,14.72,0,0,0,8.64-2.81c1.67,1.19,6.14,3.48,8.62-.8C150.64,36.59,149.55,34.87,150.42,30.54ZM135,36.15a9.74,9.74,0,0,1-8.41-10.9,9.74,9.74,0,0,1,9.64-8.49,8.88,8.88,0,0,1,1.26.08,9.74,9.74,0,0,1,8.41,10.9h0A9.74,9.74,0,0,1,135,36.15Z"/><path class="cls-1" d="M221.81,30.54a12.75,12.75,0,0,0,.32-1.39,2.29,2.29,0,0,0,.07-.28l0,0c0-.17.07-.33.09-.5h0a14.77,14.77,0,1,0-16.55,12.76,15.43,15.43,0,0,0,1.91.12,14.72,14.72,0,0,0,8.63-2.81c1.67,1.19,6.14,3.48,8.62-.8C222,36.59,220.94,34.87,221.81,30.54Zm-15.44,5.61A9.74,9.74,0,0,1,198,25.25a9.74,9.74,0,0,1,9.64-8.49,8.88,8.88,0,0,1,1.26.08,9.72,9.72,0,0,1,8.41,10.9h0A9.74,9.74,0,0,1,206.37,36.15Z"/><path class="cls-1" d="M101,11.64c-8.87-.57-14.16,4.53-15.44,9.77s-4.66,19.13-4.66,19.13h4.32a1.34,1.34,0,0,0,1.32-1c.72-3.17,2.88-12.68,3.91-16.89.79-3.21,4.28-6.3,10.25-5.94A6.93,6.93,0,0,1,106,19.14a5.88,5.88,0,0,1,.64,4.39c-1.65,7-4,16.95-4.06,17.06h4.27a1.41,1.41,0,0,0,1.38-1.1c.59-2.72,2.17-9.89,3.49-15.52.68-2.86.48-5.4-1.17-7.62C108.57,13.72,105.9,12,101,11.64Z"/><path class="cls-1" d="M173.7,13.21c-2.29,1.09-5.29,3.48-6.58,8.67-1.62,6.48-4.71,18.54-4.74,18.66l5.74,0c0-.12,2.4-10.65,4.18-17.46.7-2.66,1.87-4.23,3.8-5.15,2.55-1.22,5.91-.77,8.33.18a.76.76,0,0,0,1-.41l1.73-4.09C183.8,12.07,178.29,11,173.7,13.21Z"/></g></g></svg>