<svg viewBox="0 0 32 32" fill="black" xmlns="http://www.w3.org/2000/svg">
<path d="M16.0004 0C7.16677 0 0.000366211 7.15736 0.000366211 15.9916C0.000366211 24.8343 7.16677 32 16.0003 32C24.8388 32 31.9991 24.8342 31.9991 15.9916C31.9992 7.15736 24.8388 0 16.0004 0ZM17.1406 24.8944C16.769 25.2251 16.3383 25.3913 15.8504 25.3913C15.3457 25.3913 14.9054 25.2281 14.5295 24.901C14.1531 24.5745 13.9645 24.1174 13.9645 23.5301C13.9645 23.0091 14.147 22.5706 14.5109 22.2152C14.8747 21.8599 15.321 21.6822 15.8504 21.6822C16.3714 21.6822 16.8099 21.8599 17.1659 22.2152C17.5213 22.5706 17.6996 23.0091 17.6996 23.5301C17.6989 24.109 17.5128 24.5638 17.1406 24.8944ZM21.7742 13.407C21.4887 13.9365 21.1496 14.393 20.7563 14.7779C20.3642 15.1628 19.6589 15.8097 18.6409 16.7192C18.3602 16.9758 18.1344 17.201 17.9651 17.395C17.7959 17.5895 17.6694 17.7671 17.5869 17.9286C17.5037 18.09 17.4399 18.2515 17.3947 18.4128C17.3495 18.5736 17.2815 18.8574 17.1893 19.2627C17.0327 20.1228 16.5407 20.5528 15.7136 20.5528C15.2836 20.5528 14.9222 20.4125 14.6276 20.1312C14.3343 19.8499 14.1879 19.4325 14.1879 18.8784C14.1879 18.184 14.2958 17.5822 14.5108 17.0733C14.7246 16.5643 15.0107 16.118 15.3661 15.7331C15.7221 15.3483 16.2015 14.8917 16.8056 14.3622C17.3351 13.899 17.7176 13.5497 17.9531 13.3142C18.1891 13.0781 18.3874 12.8155 18.5481 12.5264C18.7102 12.2366 18.7897 11.9228 18.7897 11.5837C18.7897 10.9218 18.5446 10.3641 18.0519 9.90933C17.5598 9.45458 16.9249 9.22688 16.1473 9.22688C15.2373 9.22688 14.5675 9.45636 14.1374 9.91533C13.7073 10.3743 13.3442 11.0501 13.046 11.9433C12.7641 12.8782 12.2305 13.3455 11.4456 13.3455C10.9824 13.3455 10.5916 13.1823 10.2729 12.8558C9.95489 12.5293 9.79588 12.1758 9.79588 11.7951C9.79588 11.0097 10.0483 10.2134 10.5524 9.40693C11.0572 8.60044 11.7932 7.93244 12.7611 7.4036C13.7284 6.87416 14.8578 6.60911 16.1473 6.60911C17.3466 6.60911 18.4048 6.83074 19.3228 7.27348C20.2407 7.71555 20.9502 8.31731 21.4507 9.0786C21.9507 9.8393 22.2012 10.6663 22.2012 11.5596C22.2024 12.2614 22.0597 12.8776 21.7742 13.407Z" />
</svg>
