<svg viewBox="0 0 32 32" fill="black" xmlns="http://www.w3.org/2000/svg">
<path fill-rule="evenodd" clip-rule="evenodd" d="M31.8495 15.2374C31.7518 15.0004 31.6068 14.7783 31.4142 14.5858L17.9792 1.15076C17.1981 0.369709 15.9318 0.36971 15.1508 1.15076C14.3697 1.93181 14.3697 3.19814 15.1508 3.97919L25.1716 14L2 14C0.895426 14 -3.8147e-06 14.8954 -3.8147e-06 16C-3.8147e-06 17.1046 0.895426 18 2 18L25.1716 18L15.1508 28.0208C14.3697 28.8019 14.3697 30.0682 15.1508 30.8492C15.9318 31.6303 17.1981 31.6303 17.9792 30.8492L31.4142 17.4142C31.797 17.0315 31.9921 16.5322 31.9998 16.0306C32.0001 16.0102 32.0001 15.9898 31.9998 15.9694C31.9959 15.7105 31.9428 15.4635 31.8495 15.2374Z"/>
</svg>
