<svg viewBox="0 0 32 32" fill="black" xmlns="http://www.w3.org/2000/svg">
<path fill-rule="evenodd" clip-rule="evenodd" d="M0.150539 15.2374C0.248151 15.0004 0.393234 14.7783 0.585787 14.5858L14.0208 1.15076C14.8019 0.369709 16.0682 0.36971 16.8492 1.15076C17.6303 1.93181 17.6303 3.19814 16.8492 3.97919L6.82843 14H30C31.1046 14 32 14.8954 32 16C32 17.1046 31.1046 18 30 18H6.82843L16.8492 28.0208C17.6303 28.8019 17.6303 30.0682 16.8492 30.8492C16.0682 31.6303 14.8019 31.6303 14.0208 30.8492L0.585786 17.4142C0.203036 17.0315 0.00785156 16.5322 0.000232141 16.0306C-7.73857e-05 16.0102 -7.73804e-05 15.9898 0.000232157 15.9694C0.00411136 15.7105 0.0571916 15.4635 0.150539 15.2374Z" />
</svg>
