<svg viewBox="0 0 32 32" fill="black" xmlns="http://www.w3.org/2000/svg">
<path d="M14.8906 1.41451C15.0998 0.992019 15.5306 0.724167 16.0014 0.724167C16.4722 0.724167 16.9037 0.992019 17.1122 1.41451L21.0961 9.48803C21.2763 9.85322 21.6256 10.1066 22.0294 10.1653L30.939 11.4596C31.4063 11.5273 31.7929 11.8545 31.9386 12.3025C32.0842 12.7506 31.9627 13.2435 31.6252 13.5721L25.1788 19.8569C24.8868 20.1413 24.7535 20.5514 24.8219 20.9532L26.3434 29.8275C26.4221 30.2928 26.2322 30.7622 25.8498 31.0397C25.468 31.3159 24.9634 31.3525 24.545 31.1343L16.5758 26.944C16.2154 26.7541 15.7839 26.7541 15.4229 26.944L7.45361 31.1336C7.03664 31.3525 6.53062 31.3166 6.14887 31.0397C5.76711 30.7629 5.57658 30.2928 5.65596 29.8275L7.17747 20.9532C7.24651 20.5514 7.11258 20.1413 6.82057 19.8569L0.374177 13.5721C0.036601 13.2428 -0.0848987 12.7506 0.0607629 12.3025C0.206425 11.8545 0.593705 11.5273 1.06106 11.4596L9.97197 10.1653C10.3751 10.1066 10.7244 9.85322 10.9046 9.48734L14.8906 1.41451Z"/>
</svg>
