<svg viewBox="0 0 32 32" fill="black" xmlns="http://www.w3.org/2000/svg">
<path fill-rule="evenodd" clip-rule="evenodd" d="M28.36 3.63996C27.5067 2.78668 26.1233 2.78668 25.27 3.63996L16 12.91L6.72998 3.63996C5.8767 2.78668 4.49325 2.78668 3.63997 3.63996C2.78669 4.49324 2.78669 5.87669 3.63997 6.72997L12.91 16L3.63996 25.27C2.78668 26.1233 2.78668 27.5067 3.63996 28.36C4.49324 29.2133 5.87669 29.2133 6.72997 28.36L16 19.09L25.27 28.36C26.1233 29.2133 27.5068 29.2133 28.36 28.36C29.2133 27.5067 29.2133 26.1233 28.36 25.27L19.09 16L28.36 6.72997C29.2133 5.87669 29.2133 4.49324 28.36 3.63996Z"/>
</svg>
